# xmcd CD database file
#
# Track frame offsets:
#	150
#	11903
#	24138
#	39426
#	51855
#	68124
#	86358
#	103368
#	118136
#	130885
#	146242
#	162134
#	176686
#	192438
#	206143
#
# Disc length: 2938 seconds
#
# Revision: 3
# Processed by: cddbd v1.5.2PL0 Copyright (c) Steve Scherf et al.
# Submitted via: CDex 2.14
#
DISCID=d80b780f
DTITLE=John Lee Hooker - Hooker in The Begininning - CD1
DYEAR=2008
DGENRE=Blues
TTITLE0=Boogie Chillun'
TTITLE1=I'm In The Mood
TTITLE2=Like A Woman
TTITLE3=Crawlin' King Snake
TTITLE4=Helpless Blues
TTITLE5=Sally Mae
TTITLE6=Goin' Mad Blues
TTITLE7=Moanin' Blues
TTITLE8=Hobo Blues
TTITLE9=Landing Blues
TTITLE10=Lowdown Midnite Boogie
TTITLE11=Mercy Blues
TTITLE12=Good Business
TTITLE13=Tuesday Evening
TTITLE14=Do The Boogie
EXTD=YEAR: 2008
EXTT0=
EXTT1=
EXTT2=
EXTT3=
EXTT4=
EXTT5=
EXTT6=
EXTT7=
EXTT8=
EXTT9=
EXTT10=
EXTT11=
EXTT12=
EXTT13=
EXTT14=
PLAYORDER=
